# xmcd
# Track frame offsets:
# 150
# 15465
# 23790
# 37100
# 50497
# 63555
# 73060
# 85530
# 96927
# 108850
# 116642
# 127045
# 136145
# 145355
# 156815
# 165655
# 178415
# 191067
# 203515
# 211315
# 218190
# 225742
# 235520
# 247885
# 255175
# 266340
# 273242
# 284540
# 297477
# 308077
# 321920
#
# Disc length: 4413 seconds
# Revision: 1
# Processed by: cddbd v1.4PL0 Copyright (c) Steve Scherf et al.
# Submitted via: VisiTrax 2.9.5.181 - For more info visit www.synapsa.com
#
DISCID=c5113b1f
DTITLE=Oak Ridge Boys - The Gospel Collection
DYEAR=1996
DGENRE=
TTITLE0=Father Alone
TTITLE1=Day Of Rejoicing
TTITLE2=Lead Me To Calvary
TTITLE3=Hide Thou Me
TTITLE4=You`ll Never Walk Alone
TTITLE5=One Of These Mornings
TTITLE6=When I Lay My Burdens Down
TTITLE7=At The Roll Call
TTITLE8=Time Has Made A Change In Me
TTITLE9=Someday
TTITLE10=Help Me Not To Complain
TTITLE11=I´ll Shake The Hand Of The Lord Someday
TTITLE12=I Know Who Holds Tomorrow
TTITLE13=God´s Hands
TTITLE14=I´ll Live In Glory
TTITLE15=The Old Country Church
TTITLE16=At The Alter
TTITLE17=In The Shelter Of His Arms
TTITLE18=River Of Life
TTITLE19=Victory Is Coming
TTITLE20=I Asked The Lord
TTITLE21=I Wouldn´t Take Nothing For My Journey Now
TTITLE22=Becaurs Of Him
TTITLE23=You Can Have Him
TTITLE24=Keep Walking
TTITLE25=Live A little More
TTITLE26=Is The Lord Satisfied With Me
TTITLE27=Tell It Again-Nobody Ever Has Told It Before
TTITLE28=God Knows
TTITLE29=Give Me A Thankful Heart
TTITLE30=I Know My Saviour Is There
EXTD=
EXTT0=
EXTT1=
EXTT2=
EXTT3=
EXTT4=
EXTT5=
EXTT6=
EXTT7=
EXTT8=
EXTT9=
EXTT10=
EXTT11=
EXTT12=
EXTT13=
EXTT14=
EXTT15=
EXTT16=
EXTT17=
EXTT18=
EXTT19=
EXTT20=
EXTT21=
EXTT22=
EXTT23=
EXTT24=
EXTT25=
EXTT26=
EXTT27=
EXTT28=
EXTT29=
EXTT30=
PLAYORDER=
